<?xml version="1.0" encoding="UTF-8" standalone="no"?>
<svg
   version="1.1"
   viewBox="0 0 264.29156 265.02985"
   id="svg225"
   sodipodi:docname="corgi-2026347.svg"
   inkscape:version="1.2.2 (b0a8486541, 2022-12-01)"
   width="264.29156"
   height="265.02985"
   xmlns:inkscape="http://www.inkscape.org/namespaces/inkscape"
   xmlns:sodipodi="http://sodipodi.sourceforge.net/DTD/sodipodi-0.dtd"
   xmlns="http://www.w3.org/2000/svg"
   xmlns:svg="http://www.w3.org/2000/svg">
  <defs
     id="defs229" />
  <sodipodi:namedview
     id="namedview227"
     pagecolor="#ffffff"
     bordercolor="#000000"
     borderopacity="0.25"
     inkscape:showpageshadow="2"
     inkscape:pageopacity="0.0"
     inkscape:pagecheckerboard="0"
     inkscape:deskcolor="#d1d1d1"
     showgrid="false"
     inkscape:zoom="1.0147259"
     inkscape:cx="50.259877"
     inkscape:cy="370.05066"
     inkscape:window-width="1840"
     inkscape:window-height="1011"
     inkscape:window-x="80"
     inkscape:window-y="32"
     inkscape:window-maximized="1"
     inkscape:current-layer="g223" />
  <g
     transform="translate(-1146.5128,-59.246952)"
     id="g223">
    <path
       d="m 1248,117.5 c -4,-5.8 -63,-67.25 -86,-57.13 -29,14.54 -14,110.63 18,125.53"
       fill="#d7882d"
       fill-rule="evenodd"
       id="path145" />
    <path
       d="m 1176,75.57 c -10,0.58 -14,11.97 -15,20.39 -5,30.04 1,61.94 18,87.44 2,3.8 5,7.2 9,9.7 21,-20.9 42,-41.9 62,-63.8 -19,-20.2 -39,-39.74 -64,-51.52 -3,-1.28 -6,-2.27 -10,-2.21 z"
       fill="#fff6d5"
       fill-rule="evenodd"
       id="path147" />
    <path
       d="m 1310,120.1 c 3,-5.8 62,-68.02 85,-58.18 29,14.18 15,110.48 -17,125.78"
       fill="#d7882d"
       fill-rule="evenodd"
       id="path155" />
    <path
       d="m 1381,77.29 c 10,0.46 14,11.8 15,20.2 5,30.01 0,61.91 -16,87.71 -3,3.8 -6,7.2 -10,9.8 -21,-20.7 -42,-41.4 -63,-63 19,-20.5 39,-40.27 64,-52.37 3,-1.32 6,-2.34 10,-2.34 z"
       fill="#fff6d5"
       fill-rule="evenodd"
       id="path157" />
    <path
       d="m 1383,102.9 c -9,4.7 -16,14.2 -22,22 2,10 5,22.6 13,25.8 3,0.7 7,0.4 7,-5.1 2,-13.8 4,-28.4 3,-42.3 -1,-0.7 -1,-1.1 -1,-0.4 z m 0,0.1 c 1,0 0,0 0,0 z"
       fill="#f5b8b8"
       fill-rule="evenodd"
       id="path159" />
    <path
       d="m 1209,134.7 c 40,-41.73 124,-35.37 148,0 28,43.3 28,108.4 -12,140 -50,48.4 -113,60.2 -160,16 5,-53.3 -12,-126 24,-156 z"
       fill="#d7882d"
       fill-rule="evenodd"
       id="path161" />
    <path
       d="M 1255.3789,318.59718 C 1198.334,264.61249 1186,286.7 1184,225.5 c 0,0 3,-48.3 4,-48.3 1,3.9 23,55.8 65,60.1 21,1.3 57,4.1 82,-3.9 21,-8.7 37,-44.2 42,-50.9 -2,30.5 1,31.3 -6,55.3 -8,27.4 -32,44.4 -54,59.6 -7,4.7 -23,12.2 -29,14.4 -3.5757,10.71977 0.5114,-0.46139 -4.5225,12.47679 l -15.5484,-3.22572 z"
       fill="#fff6d5"
       fill-rule="evenodd"
       id="path163"
       sodipodi:nodetypes="cccccccccccc" />
    <path
       d="m 1345,268.8 c -13,21.1 -43,11.4 -49,12.1 -6,0.8 -32,9.4 -49,-11.8 -8,-11.1 26,-66.5 49,-67.3 24,-0.1 56,55.3 49,67 z"
       fill="#fff6d5"
       id="path165" />
    <path
       d="m 1254,187.3 c -8,0 -16,8.4 -14,17.8 3,12.3 18,15.6 26,7 5,-5.6 4,-17 -2,-21.5 -3,-2.3 -7,-3.5 -10,-3.3 z"
       fill-rule="evenodd"
       id="path167" />
    <path
       d="m 1334,185.3 c -8,0 -16,8.4 -14,17.8 3,12.3 18,15.6 26,7 5,-5.6 4,-17 -2,-21.5 -3,-2.3 -7,-3.5 -10,-3.3 z"
       fill-rule="evenodd"
       id="path169" />
    <path
       d="m 1270,283.4 c -5,-1.5 -11,-5.5 -14,-9.6 -2,-2.2 -3,-4 -4,-6.6 v -3.6 l 3,3.6 c 3,4.7 9,8.7 15,10.5 5,1.8 14,1.9 22,0.4 4,-0.9 6,-0.9 13,-0.1 16,1.7 25,-1.1 32,-8.9 l 3,-3.8 v 2.8 c 0,2.3 -1,3.6 -4,7.6 -4,3.9 -6,5.1 -9,6.5 -5,1.6 -7,1.8 -20,1.6 -8,-0.1 -18,0.1 -24,0.4 -7,0.4 -10,0.2 -13,-0.8 z"
       fill-rule="evenodd"
       opacity="0.2"
       id="path195" />
    <path
       d="m 1211,267.8 c 14,27.9 57,41.7 70,43.3 2,0.6 5,12.3 2,12.3 -25,-5.4 -72,-36 -72,-55.6 z"
       fill-opacity="0.4201"
       fill-rule="evenodd"
       opacity="0.4"
       id="path197" />
    <path
       d="m 1327,195.6 c -2,0 -4,2 -3,4.2 1,2.9 4,3.7 6,1.6 1,-1.2 1,-4 -1,-5 -1,-0.6 -1,-0.8 -2,-0.8 z"
       fill="#ffffff"
       fill-rule="evenodd"
       id="path199" />
    <path
       d="m 1250,195.5 c -3,0 -5,2 -4,4.3 1,2.9 5,3.6 6,1.5 1,-1.2 1,-4 -1,-4.9 0,-0.6 0,-0.9 -1,-0.9 z"
       fill="#ffffff"
       fill-rule="evenodd"
       id="path201" />
    <path
       d="m 1296,232.4 c -7,0.4 -14,2.7 -21,6.6 -1,12.1 7,25.4 20,26.6 15,2.5 28,-14.1 25,-27.8 -7,-4 -15,-5.8 -24,-5.4 z"
       fill-rule="evenodd"
       id="path203" />
    <g
       transform="translate(-222,-4)"
       fill-rule="evenodd"
       stroke="#000000"
       stroke-linecap="round"
       stroke-linejoin="round"
       stroke-width="4"
       id="g211">
      <path
         d="M 1519,270.7 V 279"
         id="path205" />
      <path
         d="m 1531,282.7 -14,-3.3"
         id="path207" />
      <path
         d="m 1507,282.7 14,-3.3"
         id="path209" />
    </g>
    <path
       d="m 1296,120.3 c -9,-0.2 -17,7.8 -18,16.4 0,16.9 -6,46.7 6,58.9 5,3.3 1,26.3 11,26.3 11,0.7 6,-21.9 12,-26.1 11,-10.4 7,-42.2 7,-59.7 0,-9.4 -9,-16.4 -18,-15.8 z"
       fill="#fff6d5"
       fill-rule="evenodd"
       id="path219" />
    <path
       d="m 1188,98 c -7,1.6 -7,9.1 -8,14.1 -2,8.6 -1,23.3 0,31.8 8,3.3 16,2.6 22,-2.7 9,-6.6 12,-12.6 16,-21.1 -9,-6.8 -19,-20 -30,-22.1 z"
       fill="#f5b8b8"
       fill-rule="evenodd"
       id="path221" />
  </g>
</svg>
